<svg version="1.1" xmlns="http://www.w3.org/2000/svg" xmlns:xlink="http://www.w3.org/1999/xlink" x="0px" y="0px"
	 viewBox="0 0 16 16" style="enable-background:new 0 0 16 16;" xml:space="preserve">
<path fill="currentColor" d="M16,3c-0.6,0.3-1.2,0.4-1.9,0.5c0.7-0.4,1.2-1.1,1.4-1.8c-0.6,0.4-1.4,0.7-2.1,0.8c-1.2-1.3-3.3-1.4-4.6-0.1
	c-0.7,0.6-1,1.5-1,2.4c0,0.3,0,0.5,0.1,0.7C5.2,5.4,2.8,4.2,1.1,2.1C0.8,2.6,0.7,3.2,0.7,3.7c0,1.1,0.5,2.1,1.4,2.7
	c-0.5,0-1.6-0.2-1.6-0.4v0c0,1.6,1.2,2.9,2.7,3.2C2.9,9.4,2.7,9.4,2.4,9.4c-0.2,0-0.4,0-0.6-0.1c0.4,1.3,1.7,2.3,3.1,2.3
	c-1.2,0.9-2.6,1.4-4.1,1.4c-0.3,0-0.5,0-0.8,0c1.5,1,3.2,1.5,5,1.5c5.1,0.1,9.3-4.1,9.4-9.2c0-0.1,0-0.1,0-0.2V4.7
	C15,4.3,15.6,3.7,16,3z"/>
</svg>
